<svg width="1200" height="424" viewBox="0 0 1200 424" fill="none" xmlns="http://www.w3.org/2000/svg">
<g clip-path="url(#clip0_2_14)">
<path d="M822.5 338.39V0.00012207H761.949V131.767H723.339V185.19H761.949V341.198C761.949 392.997 786.726 420.022 842.471 420.022H899.64V366.532H850.672C830.954 366.532 822.513 358.079 822.513 338.376L822.5 338.39Z" fill="#F2F0E7"/>
<path d="M340.887 128.199C253.002 128.199 193.849 187.906 193.849 275.794C193.849 363.683 253.002 423.39 340.887 423.39C428.771 423.39 487.924 364.242 487.924 275.794C487.924 187.346 428.771 128.199 340.887 128.199ZM340.887 371.564C289.615 371.564 256.384 331.56 256.384 275.794C256.384 220.029 289.615 180.025 340.887 180.025C392.158 180.025 425.962 220.015 425.962 275.794C425.962 331.574 392.158 371.564 340.887 371.564Z" fill="#F2F0E7"/>
<path d="M577.393 185.19V131.767H516.576V420.035H577.393V254.228C577.393 209.751 602.357 185.203 655.332 185.203H693.769V131.78H656.823C609.533 131.78 585.195 150.018 577.38 185.203L577.393 185.19Z" fill="#F2F0E7"/>
<path d="M176.301 131.767H122.873V185.19H176.301V131.767Z" fill="#F2F0E7"/>
<path d="M176.288 53.4895V0H119.119C63.387 0 38.61 27.0243 38.61 78.8231V131.767H0V185.19H38.61V420.021H99.1479V81.6453C99.1612 61.9429 107.602 53.4895 127.32 53.4895H176.288Z" fill="#F2F0E7"/>
<path d="M1198.31 288.761C1199.44 280.88 1200 272.986 1200 265.664C1198.31 181.17 1142.54 128.213 1059.15 128.213C975.769 128.213 917.175 187.36 917.175 276.367C917.175 365.374 974.078 423.403 1064.79 423.403C1136.33 423.403 1184.78 380.031 1194.93 323.134H1134.08C1125.63 355.243 1098.59 373.828 1061.4 373.828C1013.51 373.828 982.533 341.718 980.842 292.701V288.761H1198.31ZM1059.71 177.216C1101.97 177.216 1131.82 201.431 1136.89 244.257H983.092C987.605 203.135 1020.84 177.216 1059.71 177.216Z" fill="#F2F0E7"/>
<path d="M872.92 188.758C889.64 188.758 903.195 175.204 903.195 158.485C903.195 141.766 889.64 128.213 872.92 128.213C856.199 128.213 842.644 141.766 842.644 158.485C842.644 175.204 856.199 188.758 872.92 188.758Z" fill="#F2F0E7"/>
</g>
<defs>
<clipPath id="clip0_2_14">
<rect width="1200" height="423.432" fill="white"/>
</clipPath>
</defs>
</svg>
