<svg width="24" height="24" viewBox="0 0 24 24" fill="none" xmlns="http://www.w3.org/2000/svg">
<path d="M3 6C3 5.80109 3.07902 5.61032 3.21967 5.46967C3.36032 5.32902 3.55109 5.25 3.75 5.25H20.25C20.4489 5.25 20.6397 5.32902 20.7803 5.46967C20.921 5.61032 21 5.80109 21 6C21 6.19891 20.921 6.38968 20.7803 6.53033C20.6397 6.67098 20.4489 6.75 20.25 6.75H3.75C3.55109 6.75 3.36032 6.67098 3.21967 6.53033C3.07902 6.38968 3 6.19891 3 6ZM3.75 12.75H9C9.19891 12.75 9.38968 12.671 9.53033 12.5303C9.67098 12.3897 9.75 12.1989 9.75 12C9.75 11.8011 9.67098 11.6103 9.53033 11.4697C9.38968 11.329 9.19891 11.25 9 11.25H3.75C3.55109 11.25 3.36032 11.329 3.21967 11.4697C3.07902 11.6103 3 11.8011 3 12C3 12.1989 3.07902 12.3897 3.21967 12.5303C3.36032 12.671 3.55109 12.75 3.75 12.75ZM10.5 17.25H3.75C3.55109 17.25 3.36032 17.329 3.21967 17.4697C3.07902 17.6103 3 17.8011 3 18C3 18.1989 3.07902 18.3897 3.21967 18.5303C3.36032 18.671 3.55109 18.75 3.75 18.75H10.5C10.6989 18.75 10.8897 18.671 11.0303 18.5303C11.171 18.3897 11.25 18.1989 11.25 18C11.25 17.8011 11.171 17.6103 11.0303 17.4697C10.8897 17.329 10.6989 17.25 10.5 17.25ZM22.2272 13.4794L20.1159 15.2222L20.7591 17.82C20.7943 17.9632 20.7866 18.1137 20.7367 18.2525C20.6869 18.3914 20.5973 18.5124 20.479 18.6006C20.3607 18.6887 20.2191 18.7401 20.0718 18.7481C19.9245 18.7562 19.7781 18.7206 19.6509 18.6459L17.25 17.2331L14.8491 18.6459C14.7219 18.7206 14.5755 18.7562 14.4282 18.7481C14.2809 18.7401 14.1393 18.6887 14.021 18.6006C13.9027 18.5124 13.8131 18.3914 13.7633 18.2525C13.7135 18.1137 13.7057 17.9632 13.7409 17.82L14.3831 15.2222L12.2728 13.4794C12.1577 13.3842 12.0737 13.2568 12.0314 13.1136C11.9892 12.9703 11.9907 12.8178 12.0357 12.6754C12.0807 12.533 12.1672 12.4073 12.2841 12.3143C12.401 12.2214 12.543 12.1655 12.6919 12.1537L15.4894 11.9372L16.5609 9.45281C16.6188 9.31808 16.715 9.20327 16.8374 9.1226C16.9599 9.04194 17.1034 8.99894 17.25 8.99894C17.3967 8.99894 17.5401 9.04194 17.6626 9.1226C17.785 9.20327 17.8812 9.31808 17.9391 9.45281L19.0106 11.9372L21.8081 12.1537C21.957 12.1655 22.099 12.2214 22.2159 12.3143C22.3328 12.4073 22.4193 12.533 22.4643 12.6754C22.5093 12.8178 22.5108 12.9703 22.4686 13.1136C22.4263 13.2568 22.3423 13.3842 22.2272 13.4794ZM19.8394 13.5056L18.4434 13.3978C18.3073 13.3874 18.1765 13.3399 18.0653 13.2606C17.9542 13.1813 17.8667 13.0732 17.8125 12.9478L17.25 11.6428L16.6875 12.9478C16.6333 13.0732 16.5458 13.1813 16.4347 13.2606C16.3235 13.3399 16.1927 13.3874 16.0566 13.3978L14.6606 13.5056L15.7022 14.3663C15.8113 14.4561 15.8928 14.575 15.9372 14.7092C15.9817 14.8434 15.9873 14.9874 15.9534 15.1247L15.6253 16.4484L16.8694 15.7162C16.9847 15.6483 17.1161 15.6125 17.25 15.6125C17.3839 15.6125 17.5153 15.6483 17.6306 15.7162L18.8747 16.4484L18.5466 15.1247C18.5127 14.9874 18.5183 14.8434 18.5628 14.7092C18.6072 14.575 18.6887 14.4561 18.7978 14.3663L19.8394 13.5056Z" fill="black"/>
</svg>
